<?xml version="1.0" encoding="utf-8"?>
<!-- Generator: Adobe Illustrator 18.0.0, SVG Export Plug-In . SVG Version: 6.00 Build 0)  -->
<!DOCTYPE svg PUBLIC "-//W3C//DTD SVG 1.1//EN" "http://www.w3.org/Graphics/SVG/1.1/DTD/svg11.dtd">
<svg version="1.1" id="Layer_1" xmlns="http://www.w3.org/2000/svg" xmlns:xlink="http://www.w3.org/1999/xlink" x="0px" y="0px"
	 viewBox="0 0 120.8 117.8" enable-background="new 0 0 120.8 117.8" xml:space="preserve">
<g>
	<path fill-rule="evenodd" clip-rule="evenodd" fill="#EAEAEA" d="M60.4,0C27,0,0,27.1,0,60.5c0,26.7,17.3,49.4,41.3,57.4
		c3,0.6,4.1-1.3,4.1-2.9c0-1.4-0.1-6.2-0.1-11.3C28.5,107.4,25,96.6,25,96.6c-2.7-7-6.7-8.9-6.7-8.9c-5.5-3.8,0.4-3.7,0.4-3.7
		c6.1,0.4,9.3,6.2,9.3,6.2c5.4,9.2,14.1,6.6,17.6,5c0.5-3.9,2.1-6.6,3.8-8.1C36,85.7,21.9,80.5,21.9,57.3c0-6.6,2.4-12,6.2-16.2
		c-0.6-1.5-2.7-7.7,0.6-16c0,0,5.1-1.6,16.6,6.2c4.8-1.3,10-2,15.1-2c5.1,0,10.3,0.7,15.1,2c11.5-7.8,16.6-6.2,16.6-6.2
		c3.3,8.3,1.2,14.5,0.6,16c3.9,4.2,6.2,9.6,6.2,16.2c0,23.2-14.1,28.4-27.6,29.9c2.2,1.9,4.1,5.6,4.1,11.2c0,8.1-0.1,14.6-0.1,16.6
		c0,1.6,1.1,3.5,4.1,2.9c24-8,41.3-30.7,41.3-57.4C120.8,27.1,93.7,0,60.4,0z"/>
</g>
</svg>
